<mxfile host="Electron" modified="2023-07-04T05:47:28.893Z" agent="Mozilla/5.0 (Macintosh; Intel Mac OS X 10_15_7) AppleWebKit/537.36 (KHTML, like Gecko) draw.io/21.5.1 Chrome/112.0.5615.204 Electron/24.6.0 Safari/537.36" etag="3a5Ne-vgvJk6zpeA2NjE" version="21.5.1" type="device">
  <diagram name="Page-1" id="3nyX5nc9pVq_v_HHB-Hi">
    <mxGraphModel dx="1307" dy="2124" grid="1" gridSize="10" guides="1" tooltips="1" connect="1" arrows="1" fold="1" page="1" pageScale="1" pageWidth="827" pageHeight="1169" math="0" shadow="0">
      <root>
        <mxCell id="0" />
        <mxCell id="1" parent="0" />
        <mxCell id="Xh77SO8wXDp5zeqnwuF8-12" style="edgeStyle=orthogonalEdgeStyle;rounded=0;orthogonalLoop=1;jettySize=auto;html=1;entryX=0;entryY=0.5;entryDx=0;entryDy=0;strokeWidth=2;exitX=0;exitY=0.5;exitDx=0;exitDy=0;" edge="1" parent="1" source="Xh77SO8wXDp5zeqnwuF8-28" target="Xh77SO8wXDp5zeqnwuF8-6">
          <mxGeometry relative="1" as="geometry">
            <mxPoint x="343.5000000000001" y="-1120" as="sourcePoint" />
          </mxGeometry>
        </mxCell>
        <mxCell id="Xh77SO8wXDp5zeqnwuF8-11" style="edgeStyle=orthogonalEdgeStyle;rounded=0;orthogonalLoop=1;jettySize=auto;html=1;exitX=0;exitY=0.5;exitDx=0;exitDy=0;strokeWidth=2;entryX=0;entryY=0.75;entryDx=0;entryDy=0;" edge="1" parent="1" source="Xh77SO8wXDp5zeqnwuF8-24" target="Xh77SO8wXDp5zeqnwuF8-7">
          <mxGeometry relative="1" as="geometry">
            <mxPoint x="343.5000000000001" y="-900" as="sourcePoint" />
            <mxPoint x="530" y="-900" as="targetPoint" />
          </mxGeometry>
        </mxCell>
        <mxCell id="Xh77SO8wXDp5zeqnwuF8-4" style="edgeStyle=orthogonalEdgeStyle;rounded=1;orthogonalLoop=1;jettySize=auto;html=1;entryX=1;entryY=0.5;entryDx=0;entryDy=0;strokeWidth=2;" edge="1" parent="1" source="Xh77SO8wXDp5zeqnwuF8-3" target="Xh77SO8wXDp5zeqnwuF8-28">
          <mxGeometry relative="1" as="geometry">
            <mxPoint x="270" y="-1120" as="targetPoint" />
          </mxGeometry>
        </mxCell>
        <mxCell id="Xh77SO8wXDp5zeqnwuF8-5" style="edgeStyle=orthogonalEdgeStyle;rounded=1;orthogonalLoop=1;jettySize=auto;html=1;exitX=1;exitY=0.5;exitDx=0;exitDy=0;entryX=1;entryY=0.5;entryDx=0;entryDy=0;strokeWidth=2;" edge="1" parent="1" source="Xh77SO8wXDp5zeqnwuF8-3" target="Xh77SO8wXDp5zeqnwuF8-24">
          <mxGeometry relative="1" as="geometry">
            <mxPoint x="270" y="-900" as="targetPoint" />
          </mxGeometry>
        </mxCell>
        <mxCell id="Xh77SO8wXDp5zeqnwuF8-3" value="&lt;font style=&quot;font-size: 13px;&quot; face=&quot;Courier New&quot;&gt;offsets[i:i+1]&lt;/font&gt;" style="rounded=1;whiteSpace=wrap;html=1;fillColor=#FFD9D9;strokeWidth=2;" vertex="1" parent="1">
          <mxGeometry x="30" y="-1026" width="120" height="40" as="geometry" />
        </mxCell>
        <mxCell id="Xh77SO8wXDp5zeqnwuF8-9" style="edgeStyle=orthogonalEdgeStyle;rounded=1;orthogonalLoop=1;jettySize=auto;html=1;exitX=0.5;exitY=1;exitDx=0;exitDy=0;entryX=1;entryY=0.5;entryDx=0;entryDy=0;strokeWidth=2;" edge="1" parent="1" source="Xh77SO8wXDp5zeqnwuF8-6" target="Xh77SO8wXDp5zeqnwuF8-29">
          <mxGeometry relative="1" as="geometry">
            <mxPoint x="486.75" y="-1042.75" as="targetPoint" />
          </mxGeometry>
        </mxCell>
        <mxCell id="Xh77SO8wXDp5zeqnwuF8-6" value="&lt;font style=&quot;font-size: 13px;&quot; face=&quot;Courier New&quot;&gt;colIdx[j]&lt;/font&gt;" style="rounded=1;whiteSpace=wrap;html=1;fillColor=#d8ffd9;strokeWidth=2;" vertex="1" parent="1">
          <mxGeometry x="369.3" y="-1135" width="90" height="60" as="geometry" />
        </mxCell>
        <mxCell id="Xh77SO8wXDp5zeqnwuF8-7" value="&lt;font style=&quot;font-size: 13px;&quot; face=&quot;Courier New&quot;&gt;y[i] += values[j] * x[k]&lt;/font&gt;" style="rounded=1;whiteSpace=wrap;html=1;fillColor=#D8FFD9;strokeWidth=2;" vertex="1" parent="1">
          <mxGeometry x="580" y="-961" width="200" height="60" as="geometry" />
        </mxCell>
        <mxCell id="Xh77SO8wXDp5zeqnwuF8-10" style="edgeStyle=orthogonalEdgeStyle;rounded=1;orthogonalLoop=1;jettySize=auto;html=1;exitX=0;exitY=0.5;exitDx=0;exitDy=0;strokeWidth=2;entryX=0;entryY=0.25;entryDx=0;entryDy=0;" edge="1" parent="1" source="Xh77SO8wXDp5zeqnwuF8-29" target="Xh77SO8wXDp5zeqnwuF8-7">
          <mxGeometry relative="1" as="geometry">
            <mxPoint x="486.75" y="-969.2500000000001" as="sourcePoint" />
            <mxPoint x="680" y="-930" as="targetPoint" />
          </mxGeometry>
        </mxCell>
        <mxCell id="Xh77SO8wXDp5zeqnwuF8-13" value="&lt;font style=&quot;font-size: 18px;&quot; face=&quot;Courier New&quot;&gt;k&lt;/font&gt;" style="text;html=1;strokeColor=none;fillColor=none;align=center;verticalAlign=middle;whiteSpace=wrap;rounded=0;" vertex="1" parent="1">
          <mxGeometry x="437.44" y="-1053" width="60" height="30" as="geometry" />
        </mxCell>
        <mxCell id="Xh77SO8wXDp5zeqnwuF8-15" value="&lt;font style=&quot;font-size: 18px;&quot;&gt;&lt;font face=&quot;Myriad Pro&quot;&gt;data:&lt;/font&gt;&lt;br&gt;&lt;font face=&quot;Courier New&quot;&gt;j&lt;/font&gt;&lt;br&gt;&lt;font face=&quot;Myriad Pro&quot;&gt;or&amp;nbsp;&lt;/font&gt;&lt;font face=&quot;Myriad Pro&quot;&gt;control&lt;/font&gt;:&lt;br&gt;&lt;font face=&quot;Courier New&quot;&gt;loopTermination&lt;/font&gt;&lt;br&gt;&lt;div style=&quot;font-family: &amp;quot;Courier New&amp;quot;;&quot;&gt;&lt;span style=&quot;background-color: initial;&quot;&gt;termination&lt;/span&gt;&lt;/div&gt;&lt;/font&gt;" style="text;html=1;strokeColor=none;fillColor=none;align=left;verticalAlign=middle;whiteSpace=wrap;rounded=0;" vertex="1" parent="1">
          <mxGeometry x="210" y="-1075" width="175" height="120" as="geometry" />
        </mxCell>
        <mxCell id="Xh77SO8wXDp5zeqnwuF8-24" value="" style="html=1;dashed=0;whiteSpace=wrap;shape=mxgraph.dfd.dataStoreID;align=left;spacingLeft=3;points=[[0,0],[0.5,0],[1,0],[0,0.5],[1,0.5],[0,1],[0.5,1],[1,1]];rotation=-180;strokeWidth=2;" vertex="1" parent="1">
          <mxGeometry x="230" y="-931" width="60" height="30" as="geometry" />
        </mxCell>
        <mxCell id="Xh77SO8wXDp5zeqnwuF8-28" value="" style="html=1;dashed=0;whiteSpace=wrap;shape=mxgraph.dfd.dataStoreID;align=left;spacingLeft=3;points=[[0,0],[0.5,0],[1,0],[0,0.5],[1,0.5],[0,1],[0.5,1],[1,1]];rotation=-180;strokeWidth=2;" vertex="1" parent="1">
          <mxGeometry x="230" y="-1120" width="60" height="30" as="geometry" />
        </mxCell>
        <mxCell id="Xh77SO8wXDp5zeqnwuF8-29" value="" style="html=1;dashed=0;whiteSpace=wrap;shape=mxgraph.dfd.dataStoreID;align=left;spacingLeft=3;points=[[0,0],[0.5,0],[1,0],[0,0.5],[1,0.5],[0,1],[0.5,1],[1,1]];rotation=-180;strokeWidth=2;" vertex="1" parent="1">
          <mxGeometry x="440" y="-1022.9999999999999" width="54.88" height="34" as="geometry" />
        </mxCell>
      </root>
    </mxGraphModel>
  </diagram>
</mxfile>
